<?xml version="1.0" encoding="utf-8"?>
<!-- Generator: Adobe Illustrator 17.0.0, SVG Export Plug-In . SVG Version: 6.00 Build 0)  -->
<!DOCTYPE svg PUBLIC "-//W3C//DTD SVG 1.1//EN" "http://www.w3.org/Graphics/SVG/1.1/DTD/svg11.dtd">
<svg version="1.1" id="Layer_1" xmlns="http://www.w3.org/2000/svg" xmlns:xlink="http://www.w3.org/1999/xlink" x="0px" y="0px"
	 width="50px" height="50px" viewBox="0 0 50 50" enable-background="new 0 0 50 50" xml:space="preserve">
<g>
	<g>
		<path fill="#10ACB9" d="M49.6,47.4L37.4,35.3c3.3-3.7,5.2-8.6,5.2-14C42.6,9.6,33.1,0,21.3,0C9.6,0,0,9.6,0,21.3
			s9.6,21.3,21.3,21.3c5.3,0,10.2-2,14-5.2l12.2,12.2c0.3,0.3,0.7,0.4,1.1,0.4c0.4,0,0.8-0.1,1.1-0.4C50.1,49,50.1,48,49.6,47.4
			L49.6,47.4z M3,21.3C3,11.2,11.2,3,21.3,3c10.1,0,18.3,8.2,18.3,18.3s-8.2,18.3-18.3,18.3C11.2,39.7,3,31.4,3,21.3L3,21.3z
			 M3,21.3"/>
	</g>
</g>
</svg>
