<?xml version="1.0" encoding="utf-8"?>
<!-- Generator: Adobe Illustrator 17.0.0, SVG Export Plug-In . SVG Version: 6.00 Build 0)  -->
<!DOCTYPE svg PUBLIC "-//W3C//DTD SVG 1.1//EN" "http://www.w3.org/Graphics/SVG/1.1/DTD/svg11.dtd">
<svg version="1.1" id="Layer_1" xmlns="http://www.w3.org/2000/svg" xmlns:xlink="http://www.w3.org/1999/xlink" x="0px" y="0px"
	 width="50px" height="50px" viewBox="0 0 50 50" enable-background="new 0 0 50 50" xml:space="preserve">
<g transform="translate(1 1)">
	<path fill="#10ACB9" d="M33.2,42.3H1.5c-1.4,0-2.5-1.1-2.5-2.5v-9.2c0-1.4,1.1-2.5,2.5-2.5h0.4c0.3,0,0.7-0.2,0.8-0.6l2.9-10.2
		v-0.1c0.7-1.5,2.2-2.5,3.8-2.5h15.7c1.7,0,3.2,1,3.8,2.5v0.1l2.9,10.2c0.1,0.3,0.4,0.6,0.8,0.6h0.4c1.4,0,2.5,1.1,2.5,2.5v9.2
		C35.7,41.3,34.6,42.3,33.2,42.3z M1.5,29.8c-0.5,0-0.8,0.3-0.8,0.8v9.2c0,0.5,0.3,0.8,0.8,0.8h31.7c0.5,0,0.8-0.3,0.8-0.8v-9.2
		c0-0.5-0.3-0.8-0.8-0.8h-0.4c-1.1,0-2.1-0.8-2.4-1.8l-2.9-10.1c-0.4-0.9-1.3-1.4-2.3-1.4H9.5c-1,0-1.8,0.6-2.2,1.4L4.3,28
		C4,29.1,3,29.8,1.9,29.8H1.5z"/>
	<path fill="#10ACB9" d="M5.7,49H4c-1.4,0-2.5-1.1-2.5-2.5v-5c0-0.5,0.3-0.8,0.8-0.8h5c0.5,0,0.8,0.3,0.8,0.8v5
		C8.2,47.9,7.1,49,5.7,49z M3.2,42.3v4.2c0,0.5,0.3,0.8,0.8,0.8h1.7c0.5,0,0.8-0.3,0.8-0.8v-4.2H3.2z"/>
	<path fill="#10ACB9" d="M30.7,49H29c-1.4,0-2.5-1.1-2.5-2.5v-5c0-0.5,0.3-0.8,0.8-0.8h5c0.5,0,0.8,0.3,0.8,0.8v5
		C33.2,47.9,32.1,49,30.7,49z M28.2,42.3v4.2c0,0.5,0.3,0.8,0.8,0.8h1.7c0.5,0,0.8-0.3,0.8-0.8v-4.2H28.2z"/>
	<path fill="#10ACB9" d="M6.5,38.2c-1.8,0-3.3-1.5-3.3-3.3c0-1.8,1.5-3.3,3.3-3.3s3.3,1.5,3.3,3.3C9.8,36.7,8.3,38.2,6.5,38.2z
		 M6.5,33.2c-0.9,0-1.7,0.8-1.7,1.7s0.8,1.7,1.7,1.7s1.7-0.8,1.7-1.7S7.4,33.2,6.5,33.2z"/>
	<path fill="#10ACB9" d="M28.2,38.2c-1.8,0-3.3-1.5-3.3-3.3c0-1.8,1.5-3.3,3.3-3.3s3.3,1.5,3.3,3.3C31.5,36.7,30,38.2,28.2,38.2z
		 M28.2,33.2c-0.9,0-1.7,0.8-1.7,1.7s0.8,1.7,1.7,1.7c0.9,0,1.7-0.8,1.7-1.7S29.1,33.2,28.2,33.2z"/>
	<path fill="#10ACB9" d="M19,37.3h-3.3c-0.5,0-0.8-0.3-0.8-0.8c0-0.5,0.3-0.8,0.8-0.8H19c0.5,0,0.8,0.3,0.8,0.8
		C19.8,37,19.5,37.3,19,37.3z"/>
	<path fill="#10ACB9" d="M20.7,34H14c-0.5,0-0.8-0.3-0.8-0.8s0.3-0.8,0.8-0.8h6.7c0.5,0,0.8,0.3,0.8,0.8S21.2,34,20.7,34z"/>
	<path fill="#10ACB9" d="M25.4,28.2H9.3c-0.5,0-1-0.2-1.3-0.7c-0.3-0.4-0.4-1-0.3-1.5l2-6.7c0.3-0.7,0.8-1.2,1.6-1.2h12.1
		c0.8,0,1.4,0.5,1.6,1.2l2,6.7c0.2,0.5,0.1,1.1-0.2,1.5C26.4,27.9,25.9,28.2,25.4,28.2z M11.3,19.8l-2,6.7h16.1l-2-6.7H11.3z"/>
	<path fill="#10ACB9" d="M45.7,49h-10c-0.5,0-0.8-0.3-0.8-0.8v-3.3c0-0.5,0.3-0.8,0.8-0.8h10c0.5,0,0.8,0.3,0.8,0.8v3.3
		C46.5,48.7,46.2,49,45.7,49z M36.5,47.3h8.3v-1.7h-8.3V47.3z"/>
	<path fill="#10ACB9" d="M43.2,45.7h-5c-0.5,0-0.8-0.3-0.8-0.8v-3.3c0-0.5,0.3-0.8,0.8-0.8h5c0.5,0,0.8,0.3,0.8,0.8v3.3
		C44,45.3,43.7,45.7,43.2,45.7z M39,44h3.3v-1.7H39V44z"/>
	<path fill="#10ACB9" d="M40.7,42.3c-0.5,0-0.8-0.3-0.8-0.8V14c0-0.5,0.3-0.8,0.8-0.8c0.5,0,0.8,0.3,0.8,0.8v27.5
		C41.5,42,41.2,42.3,40.7,42.3z"/>
	<path fill="#10ACB9" d="M48.2,14.8H34c-0.5,0-0.8-0.3-0.8-0.8V-0.2C33.2-0.7,33.5-1,34-1h14.2C48.7-1,49-0.7,49-0.2V14
		C49,14.5,48.7,14.8,48.2,14.8z M34.8,13.2h12.5V0.7H34.8V13.2z"/>
	<path fill="#10ACB9" d="M39.8,11.5c-0.5,0-0.8-0.3-0.8-0.8V3.2c0-0.5,0.3-0.8,0.8-0.8c0.5,0,0.8,0.3,0.8,0.8v7.5
		C40.7,11.2,40.3,11.5,39.8,11.5z"/>
	<path fill="#10ACB9" d="M41.5,9h-1.7C39.3,9,39,8.7,39,8.2v-5c0-0.5,0.3-0.8,0.8-0.8h1.7c1.8,0,3.3,1.5,3.3,3.3S43.3,9,41.5,9z
		 M40.7,7.3h0.8c0.9,0,1.7-0.8,1.7-1.7S42.4,4,41.5,4h-0.8V7.3z"/>
</g>
</svg>
