<?xml version="1.0" encoding="utf-8"?>
<!-- Generator: Adobe Illustrator 17.0.0, SVG Export Plug-In . SVG Version: 6.00 Build 0)  -->
<!DOCTYPE svg PUBLIC "-//W3C//DTD SVG 1.1//EN" "http://www.w3.org/Graphics/SVG/1.1/DTD/svg11.dtd">
<svg version="1.1" id="Layer_1" xmlns="http://www.w3.org/2000/svg" xmlns:xlink="http://www.w3.org/1999/xlink" x="0px" y="0px"
	 width="50px" height="50px" viewBox="0 0 50 50" enable-background="new 0 0 50 50" xml:space="preserve">
<g>
	<path fill="#10ACB9" d="M5.8,1.7h4.4l3.1,7.7V15c0,0.5,0.4,0.8,0.8,0.8c0.5,0,0.8-0.4,0.8-0.8v-5h14.2c1.4,0,2.5,1.1,2.5,2.5v0.8
		H17.5c-0.5,0-0.8,0.4-0.8,0.8c0,0.5,0.4,0.8,0.8,0.8h15c0.5,0,0.8-0.4,0.8-0.8v-1.7c0-2.3-1.9-4.2-4.2-4.2H14.7l-3.1-7.8
		C11.5,0.2,11.2,0,10.8,0h-5C5.4,0,5,0.4,5,0.8C5,1.3,5.4,1.7,5.8,1.7L5.8,1.7z M5.8,1.7"/>
	<path fill="#10ACB9" d="M16.7,26.7c-3.7,0-6.7,3-6.7,6.7c0,3.7,3,6.7,6.7,6.7c3.7,0,6.7-3,6.7-6.7C23.3,29.7,20.3,26.7,16.7,26.7
		L16.7,26.7z M16.7,38.3c-2.8,0-5-2.2-5-5c0-2.8,2.2-5,5-5c2.8,0,5,2.2,5,5C21.7,36.1,19.4,38.3,16.7,38.3L16.7,38.3z M16.7,38.3"/>
	<path fill="#10ACB9" d="M16.7,32.5L16.7,32.5c-0.5,0-0.8,0.4-0.8,0.8c0,0.5,0.4,0.8,0.8,0.8c0.5,0,0.8-0.4,0.8-0.8
		C17.5,32.9,17.2,32.5,16.7,32.5L16.7,32.5z M16.7,32.5"/>
	<path fill="#10ACB9" d="M26.1,23.9C26.1,23.9,26.1,23.9,26.1,23.9c-2.5-2.4-5.8-3.9-9.4-3.9c-3.7,0-7,1.5-9.4,3.9c0,0,0,0,0,0
		c0,0,0,0,0,0c-2.4,2.4-3.9,5.7-3.9,9.4c0,3.7,1.5,7,3.9,9.4c0,0,0,0,0,0c0,0,0,0,0,0c2.4,2.4,5.7,3.9,9.4,3.9c3.7,0,7-1.5,9.4-3.9
		c0,0,0,0,0,0c0,0,0,0,0,0c2.4-2.4,3.9-5.7,3.9-9.4C30,29.7,28.5,26.4,26.1,23.9C26.1,23.9,26.1,23.9,26.1,23.9L26.1,23.9z
		 M25.5,25.7c1.8,2,2.9,4.7,2.9,7.6c0,2.9-1.1,5.6-2.9,7.6l0,0l-1.2,1.2c-2,1.8-4.7,2.9-7.6,2.9c-2.9,0-5.6-1.1-7.6-2.9L7.9,41
		c-1.8-2-2.9-4.7-2.9-7.6c0-2.9,1.1-5.6,2.9-7.6L9,24.5c2-1.8,4.7-2.9,7.6-2.9c2.9,0,5.6,1.1,7.6,2.9 M25.5,41"/>
	<path fill="#10ACB9" d="M46.7,41.8V25.8c0-2.3-1.9-4.2-4.2-4.2H32.1c-0.5,0-0.8,0.4-0.8,0.8c0,0.5,0.4,0.8,0.8,0.8h10.4
		c1.4,0,2.5,1.1,2.5,2.5v0.8H34.6c-0.5,0-0.8,0.4-0.8,0.8c0,0.5,0.4,0.8,0.8,0.8H45v13.4c-1.9,0.4-3.3,2.1-3.3,4.1
		c0,2.3,1.9,4.2,4.2,4.2c2.3,0,4.2-1.9,4.2-4.2C50,43.8,48.6,42.1,46.7,41.8L46.7,41.8z M46.7,43.5c1,0.3,1.7,1.3,1.7,2.3
		c0,1.4-1.1,2.5-2.5,2.5l0,0c-1.4,0-2.5-1.1-2.5-2.5c0-1.1,0.7-2,1.7-2.3 M45.8,48.3"/>
	<path fill="#10ACB9" d="M16.7,16.7C7.5,16.7,0,24.1,0,33.3C0,42.5,7.5,50,16.7,50c9.2,0,16.7-7.5,16.7-16.7
		C33.3,24.1,25.9,16.7,16.7,16.7L16.7,16.7z M16.7,48.3c-8.3,0-15-6.7-15-15s6.7-15,15-15c8.3,0,15,6.7,15,15S24.9,48.3,16.7,48.3
		L16.7,48.3z M16.7,48.3"/>
</g>
</svg>
