<?xml version="1.0" encoding="utf-8"?>
<!-- Generator: Adobe Illustrator 17.0.0, SVG Export Plug-In . SVG Version: 6.00 Build 0)  -->
<!DOCTYPE svg PUBLIC "-//W3C//DTD SVG 1.1//EN" "http://www.w3.org/Graphics/SVG/1.1/DTD/svg11.dtd">
<svg version="1.1" id="Layer_1" xmlns="http://www.w3.org/2000/svg" xmlns:xlink="http://www.w3.org/1999/xlink" x="0px" y="0px"
	 width="50px" height="50px" viewBox="0 0 50 50" enable-background="new 0 0 50 50" xml:space="preserve">
<g>
	<path fill="none" stroke="#10ACB9" stroke-width="2" stroke-miterlimit="10" d="M10,17v25.9c0,0,1.5,6.1,6,6.1h16.9
		c0,0,5.2-1.6,5.2-5.8V17H10z"/>
	<path fill="none" stroke="#10ACB9" stroke-width="2" stroke-miterlimit="10" d="M37.5,35.8C44.7,35.2,45.4,23,38,22h0"/>
	<line fill="none" stroke="#10ACB9" stroke-width="2" stroke-miterlimit="10" x1="30" y1="22" x2="30" y2="42"/>
	<line fill="none" stroke="#10ACB9" stroke-width="2" stroke-miterlimit="10" x1="24" y1="22" x2="24" y2="42"/>
	<line fill="none" stroke="#10ACB9" stroke-width="2" stroke-miterlimit="10" x1="18" y1="22" x2="18" y2="42"/>
	<path fill="none" stroke="#10ACB9" stroke-width="1.6458" stroke-miterlimit="10" d="M37.8,16.9c0,0,6-6.4-2.5-9.2
		c0,0-1.5-5.3-8.1-3.2c0.2,0-2.4-2.3-2.6-2.4c-2.2-1.2-5.8-1.5-8,0c-1.9,1.3-4,4.9-3,7.2c0,0-8.6,0.8-3.6,7.7"/>
</g>
</svg>
