<?xml version="1.0" encoding="utf-8"?>
<!-- Generator: Adobe Illustrator 17.0.0, SVG Export Plug-In . SVG Version: 6.00 Build 0)  -->
<!DOCTYPE svg PUBLIC "-//W3C//DTD SVG 1.1//EN" "http://www.w3.org/Graphics/SVG/1.1/DTD/svg11.dtd">
<svg version="1.1" id="Layer_1" xmlns="http://www.w3.org/2000/svg" xmlns:xlink="http://www.w3.org/1999/xlink" x="0px" y="0px"
	 width="21px" height="27px" viewBox="0 0 21 27" enable-background="new 0 0 21 27" xml:space="preserve">
<g>
	<g>
		<path fill="#10ACB9" d="M10.5,0C4.7,0,0,4.7,0,10.5c0,5.6,9.7,15.9,10.1,16.3c0.3,0.3,0.7,0.1,0.8,0C11.3,26.4,21,16.1,21,10.5
			C21,4.7,16.3,0,10.5,0L10.5,0z M10.5,25.6c-1.9-2-9.3-10.5-9.3-15.1c0-5.1,4.2-9.3,9.3-9.3c5.2,0,9.3,4.2,9.3,9.3
			C19.9,15.1,12.4,23.5,10.5,25.6L10.5,25.6z M10.5,25.6"/>
	</g>
	<path fill="#10ACB9" d="M10.5,3.7C6.9,3.7,4,6.6,4,10.1c0,3.6,2.9,6.4,6.5,6.4c3.6,0,6.5-2.9,6.5-6.4C17,6.6,14.1,3.7,10.5,3.7
		L10.5,3.7z M10.5,15.2c-2.8,0-5-2.3-5-5s2.3-5,5-5c2.8,0,5,2.3,5,5C15.5,12.9,13.3,15.2,10.5,15.2L10.5,15.2z M10.5,15.2"/>
</g>
</svg>
