<?xml version="1.0" encoding="utf-8"?>
<!-- Generator: Adobe Illustrator 17.0.0, SVG Export Plug-In . SVG Version: 6.00 Build 0)  -->
<!DOCTYPE svg PUBLIC "-//W3C//DTD SVG 1.1//EN" "http://www.w3.org/Graphics/SVG/1.1/DTD/svg11.dtd">
<svg version="1.1" id="Layer_1" xmlns="http://www.w3.org/2000/svg" xmlns:xlink="http://www.w3.org/1999/xlink" x="0px" y="0px"
	 width="50px" height="50px" viewBox="0 0 50 50" enable-background="new 0 0 50 50" xml:space="preserve">
<g transform="translate(1 1)">
	<path fill="#10ACB9" d="M7.3,39.2C2.8,39.2-1,35.5-1,31s3.8-8.2,8.3-8.2s8.3,3.7,8.3,8.2S11.9,39.2,7.3,39.2z M7.3,24.4
		c-3.7,0-6.7,3-6.7,6.6s3,6.6,6.7,6.6s6.7-3,6.7-6.6S11,24.4,7.3,24.4z"/>
	<path fill="#10ACB9" d="M40.7,39.2c-4.6,0-8.3-3.7-8.3-8.2s3.8-8.2,8.3-8.2S49,26.5,49,31S45.3,39.2,40.7,39.2z M40.7,24.4
		c-3.7,0-6.7,3-6.7,6.6s3,6.6,6.7,6.6s6.7-3,6.7-6.6S44.3,24.4,40.7,24.4z"/>
	<path fill="#10ACB9" d="M19.8,32.7L19.8,32.7L7.2,31.8c-0.3,0-0.6-0.2-0.7-0.5c-0.1-0.3-0.1-0.6,0.1-0.8L14.2,19
		c0.1-0.2,0.3-0.2,0.4-0.3c0,0,0,0,0.1,0l0,0l0,0c0.1,0,0.2-0.1,0.3-0.1h18.3c0.2,0,0.5,0.2,0.7,0.3l7.5,11.5
		c0.3,0.4,0.2,0.9-0.3,1.1c-0.4,0.2-0.9,0.2-1.2-0.2l-7.3-11H16.1l4.6,11.3c0.1,0.2,0.1,0.6-0.1,0.8C20.3,32.6,20.1,32.7,19.8,32.7z
		 M8.8,30.2l9.8,0.7l-3.9-9.7L8.8,30.2z"/>
	<path fill="#10ACB9" d="M24,31c-0.2,0-0.4-0.1-0.5-0.2c-0.3-0.3-0.4-0.8-0.1-1.1L32.6,19c0.3-0.3,0.8-0.4,1.2-0.1
		c0.3,0.3,0.4,0.8,0.1,1.1l-9.2,10.7C24.5,30.9,24.3,31,24,31z"/>
	<path fill="#10ACB9" d="M14.8,20.3c-0.2,0-0.6-0.2-0.7-0.4l-2.5-4.1c-0.2-0.4-0.1-0.9,0.3-1.1c0.4-0.2,0.9-0.1,1.2,0.3l2.5,4.1
		c0.2,0.4,0.1,0.9-0.2,1.1C15.2,20.3,15,20.3,14.8,20.3z"/>
	<path fill="#10ACB9" d="M16.5,16.2h-5.8c-0.5,0-0.8-0.3-0.8-0.8c0-0.5,0.3-0.8,0.8-0.8h5.8c0.5,0,0.8,0.3,0.8,0.8
		C17.3,15.9,17,16.2,16.5,16.2z"/>
	<path fill="#10ACB9" d="M33.2,20.3c-0.3,0-0.6-0.2-0.8-0.5l-2.5-4.9c-0.2-0.4,0-0.9,0.3-1.1l5-2.5c0.4-0.2,0.9,0,1.1,0.3
		c0.2,0.4,0,0.9-0.3,1.1l-4.3,2.1l2.2,4.2c0.2,0.4,0,0.9-0.3,1.1C33.4,20.3,33.3,20.3,33.2,20.3z"/>
	<path fill="#10ACB9" d="M35.7,12.9c-0.2,0-0.3-0.1-0.5-0.2l-3.3-2.5c-0.3-0.2-0.4-0.8-0.2-1.1c0.2-0.3,0.8-0.4,1.2-0.2l3.3,2.5
		c0.3,0.2,0.4,0.8,0.2,1.1C36.2,12.8,35.9,12.9,35.7,12.9z"/>
	<path fill="#10ACB9" d="M22.3,35.9c-1.8,0-3.3-1.5-3.3-3.3c0-1.8,1.5-3.3,3.3-3.3s3.3,1.5,3.3,3.3C25.7,34.4,24.2,35.9,22.3,35.9z
		 M22.3,31c-0.9,0-1.7,0.7-1.7,1.6s0.8,1.6,1.7,1.6c0.9,0,1.7-0.7,1.7-1.6S23.3,31,22.3,31z"/>
</g>
</svg>
