<?xml version="1.0" encoding="utf-8"?>
<!-- Generator: Adobe Illustrator 17.0.0, SVG Export Plug-In . SVG Version: 6.00 Build 0)  -->
<!DOCTYPE svg PUBLIC "-//W3C//DTD SVG 1.1//EN" "http://www.w3.org/Graphics/SVG/1.1/DTD/svg11.dtd">
<svg version="1.1" id="Layer_1" xmlns="http://www.w3.org/2000/svg" xmlns:xlink="http://www.w3.org/1999/xlink" x="0px" y="0px"
	 width="50px" height="50px" viewBox="0 0 50 50" enable-background="new 0 0 50 50" xml:space="preserve">
<g>
	<path fill="#10ACB9" d="M17,22.8c4,0,7.2-4.4,7.2-9.8c0-5.4-3.2-9.8-7.2-9.8c-4,0-7.2,4.4-7.2,9.8C9.8,18.4,13,22.8,17,22.8
		L17,22.8z M17,5.6c2.6,0,4.9,3.4,4.9,7.4c0,4-2.2,7.4-4.9,7.4c-2.6,0-4.9-3.4-4.9-7.4C12.1,9,14.4,5.6,17,5.6L17,5.6z M17,5.6"/>
	<path fill="#10ACB9" d="M38.5,32.3c-0.1-0.2-0.3-0.4-0.4-0.6c-1.6-3.5-6.1-7.6-13.2-7.7l-0.3,0c-7.1,0-11.5,3.9-13.3,7.5
		c-0.1,0.1-0.2,0.3-0.3,0.5c-0.2,0.2-0.3,0.4-0.5,0.6C9,35,8.3,37.6,8.4,40c0.1,2.6,1.2,4.6,3,5.8c0.7,0.5,1.5,0.7,2.4,0.7
		c1.7,0,3.3-1,5.1-2.1c1.2-0.7,2.4-1.5,3.7-2c0.2,0,0.8-0.1,1.8-0.1c1.2,0,2.1,0.1,2.2,0.2c1.3,0.6,2.4,1.3,3.6,2.1
		c1.7,1.1,3.3,2.2,5,2.2c0.7,0,1.5-0.2,2.2-0.6c3.8-2.1,4.5-8,1.6-13.1C38.8,32.8,38.7,32.5,38.5,32.3L38.5,32.3z M36.2,44.1
		c-0.3,0.2-0.6,0.3-1,0.3c-1,0-2.3-0.8-3.7-1.8c-1.1-0.8-2.4-1.6-3.9-2.3c-0.7-0.3-2.3-0.4-3.2-0.4c-1.3,0-2.2,0.1-2.6,0.3
		c-1.5,0.6-2.9,1.5-4.1,2.2c-1.5,0.9-2.8,1.8-3.9,1.8c-0.4,0-0.7-0.1-1.1-0.3c-1.2-0.8-1.9-2.2-1.9-3.9c-0.1-1.9,0.5-4.1,1.8-6
		c0.1-0.1,0.2-0.3,0.3-0.4c0.2-0.3,0.5-0.6,0.7-0.9c1.5-3,5.1-6.2,11.1-6.2h0.2c6.1,0.1,9.8,3.5,11.1,6.3c0.2,0.4,0.4,0.7,0.6,1
		c0.1,0.2,0.2,0.3,0.3,0.5C39.2,38.1,38.8,42.6,36.2,44.1L36.2,44.1z M36.2,44.1"/>
	<path fill="#10ACB9" d="M32.4,22.8c4,0,7.2-4.4,7.2-9.8c0-5.4-3.3-9.8-7.2-9.8c-4,0-7.2,4.4-7.2,9.8C25.2,18.4,28.4,22.8,32.4,22.8
		L32.4,22.8z M32.4,5.6c2.6,0,4.9,3.4,4.9,7.4c0,4-2.2,7.4-4.9,7.4c-2.6,0-4.9-3.4-4.9-7.4C27.5,9,29.8,5.6,32.4,5.6L32.4,5.6z
		 M32.4,5.6"/>
	<path fill="#10ACB9" d="M44.3,17.8c-3.2,0-5.7,3.3-5.7,7.6c0,4.3,2.5,7.6,5.7,7.6c3.2,0,5.7-3.3,5.7-7.6
		C50,21.1,47.5,17.8,44.3,17.8L44.3,17.8z M44.3,30.6c-1.8,0-3.3-2.4-3.3-5.2c0-2.8,1.5-5.2,3.3-5.2c1.8,0,3.3,2.4,3.3,5.2
		C47.6,28.2,46.1,30.6,44.3,30.6L44.3,30.6z M44.3,30.6"/>
	<path fill="#10ACB9" d="M11.4,25.4c0-4.3-2.5-7.6-5.7-7.6c-3.2,0-5.7,3.3-5.7,7.6C0,29.6,2.5,33,5.7,33C8.9,33,11.4,29.6,11.4,25.4
		L11.4,25.4z M5.7,30.6c-1.8,0-3.3-2.4-3.3-5.2c0-2.8,1.5-5.2,3.3-5.2c1.8,0,3.3,2.4,3.3,5.2C9.1,28.2,7.5,30.6,5.7,30.6L5.7,30.6z
		 M5.7,30.6"/>
</g>
</svg>
