<?xml version="1.0" encoding="utf-8"?>
<!-- Generator: Adobe Illustrator 17.0.0, SVG Export Plug-In . SVG Version: 6.00 Build 0)  -->
<!DOCTYPE svg PUBLIC "-//W3C//DTD SVG 1.1//EN" "http://www.w3.org/Graphics/SVG/1.1/DTD/svg11.dtd">
<svg version="1.1" id="Layer_1" xmlns="http://www.w3.org/2000/svg" xmlns:xlink="http://www.w3.org/1999/xlink" x="0px" y="0px"
	 width="21px" height="19px" viewBox="0 0 21 19" enable-background="new 0 0 21 19" xml:space="preserve">
<g>
	<path fill="#10ACB9" d="M11.9,1.1c5,0,9.4,4.4,7.7,9.7c-0.7,2.1-2.6,3.8-4.6,4.5c-1.3,0.5-2.8,0.5-3.9,0.5c-0.2,0-0.4,0-0.6,0
		c-0.1,0-0.1,0-0.2,0c-0.1,0-0.1,0-0.2,0c-2.8,0-6.8-0.3-9-3.4c3.1,0,2.5-3.5,2.9-5.6c0.6-3.2,3.7-5.3,6.7-5.7
		C11.1,1.1,11.5,1.1,11.9,1.1 M11.9,0c-0.4,0-0.8,0-1.3,0.1c-1.7,0.2-3.4,1-4.8,2C4.3,3.3,3.3,4.9,2.9,6.7C2.8,7.2,2.8,7.7,2.7,8.3
		c-0.1,0.9-0.1,1.8-0.4,2.4c-0.2,0.4-0.5,0.7-1.2,0.7c-0.4,0-0.8,0.2-1,0.6c-0.2,0.4-0.1,0.8,0.1,1.2c2.6,3.4,6.9,3.8,9.9,3.8
		c0.1,0,0.1,0,0.2,0c0.1,0,0.1,0,0.2,0c0.1,0,0.2,0,0.3,0c0.1,0,0.2,0,0.3,0c1.4,0,2.9-0.1,4.3-0.6c1.1-0.4,2.2-1.1,3.1-2
		c1-0.9,1.7-2.1,2.1-3.2c0.4-1.3,0.5-2.6,0.3-3.9c-0.2-1.2-0.7-2.3-1.4-3.4c-0.8-1.2-2-2.1-3.3-2.8C14.8,0.4,13.3,0,11.9,0"/>
	<path fill="#10ACB9" d="M8.7,16.6c0.1,1.2-0.8,2.3-2,2.4c-1.2,0.1-2.3-0.8-2.4-2c-0.1-1.2,0.8-2.3,2-2.4
		C7.5,14.5,8.6,15.4,8.7,16.6"/>
	<path fill="#10ACB9" d="M7.1,16.8c0,0.4-0.3,0.7-0.6,0.7c-0.3,0-0.6-0.3-0.6-0.7c0-0.4,0.3-0.7,0.6-0.7C6.9,16,7.1,16.4,7.1,16.8"
		/>
	<path fill="#10ACB9" d="M16.3,16.6c0.1,1.2-0.8,2.3-2,2.4s-2.3-0.8-2.4-2c-0.1-1.2,0.8-2.3,2-2.4C15.1,14.5,16.2,15.4,16.3,16.6"/>
	<path fill="#10ACB9" d="M14.7,16.8c0,0.4-0.3,0.7-0.6,0.7c-0.3,0-0.6-0.3-0.6-0.7c0-0.4,0.3-0.7,0.6-0.7
		C14.4,16,14.7,16.4,14.7,16.8"/>
	<path fill="#10ACB9" d="M10.4,6.6c0,0.6-0.5,1.1-1.1,1.1c-0.6,0-1.1-0.5-1.1-1.1c0-0.6,0.5-1.1,1.1-1.1C10,5.5,10.4,6,10.4,6.6"/>
	<path fill="#10ACB9" d="M15.4,6.6c0,0.6-0.5,1.1-1.1,1.1c-0.6,0-1.1-0.5-1.1-1.1c0-0.6,0.5-1.1,1.1-1.1C14.9,5.5,15.4,6,15.4,6.6"
		/>
	<path fill="#10ACB9" d="M11.8,12.3c-1.8,0-3.4-1.2-3.7-2.7C8.1,9.3,8.3,9,8.5,8.9c0.3-0.1,0.6,0.1,0.6,0.4c0.2,0.9,1.3,1.9,2.7,1.8
		c1.5,0,2.5-0.9,2.7-1.8C14.7,9.1,15,8.9,15.3,9c0.3,0.1,0.5,0.4,0.4,0.7c-0.2,0.7-0.6,1.4-1.3,1.9c-0.7,0.5-1.5,0.8-2.5,0.8
		C11.9,12.3,11.9,12.3,11.8,12.3"/>
</g>
</svg>
